<?xml version="1.0" encoding="UTF-8"?>
<svg version="1.1" xmlns="http://www.w3.org/2000/svg" width="275" height="183">
<path d="M0 0 C90.75 0 181.5 0 275 0 C275 60.39 275 120.78 275 183 C184.25 183 93.5 183 0 183 C0 122.61 0 62.22 0 0 Z " fill="#FFFEFE" transform="translate(0,0)"/>
<path d="M0 0 C1.57723091 -0.01475121 1.57723091 -0.01475121 3.18632507 -0.02980042 C4.33450211 -0.02013245 5.48267914 -0.01046448 6.66564941 -0.00050354 C7.87900467 -0.00590652 9.09235992 -0.01130951 10.34248352 -0.01687622 C13.66715019 -0.02724075 16.99082173 -0.01966132 20.31540108 -0.00316501 C23.79555792 0.01069141 27.2756849 0.00422475 30.75585938 0.0007019 C36.60006036 -0.00199977 42.44405591 0.01147147 48.28820801 0.03465271 C55.04341365 0.06126235 61.79827582 0.06300948 68.55351591 0.05126435 C75.05369171 0.0404824 81.55374335 0.04667685 88.0539093 0.06081963 C90.81939125 0.06657586 93.58478223 0.06649963 96.3502655 0.06175423 C100.21203594 0.05609273 104.07346315 0.0753092 107.93518066 0.09715271 C109.65744621 0.09040024 109.65744621 0.09040024 111.414505 0.08351135 C112.46599228 0.09341599 113.51747955 0.10332062 114.60083008 0.11352539 C115.97019588 0.11717023 115.97019588 0.11717023 117.36722565 0.12088871 C120.3218281 0.58270428 121.69303267 1.39385017 123.80041504 3.50120544 C124.19331962 6.39053587 124.33787458 8.89400701 124.29650879 11.78245544 C124.29796402 12.59234924 124.29941925 13.40224304 124.30091858 14.23667908 C124.29925943 15.94810078 124.28769616 17.65953738 124.26696777 19.37083435 C124.23801938 21.99175839 124.24635587 24.6106592 124.25939941 27.23167419 C124.25316172 28.89444445 124.24477054 30.55720831 124.23400879 32.21995544 C124.23694443 33.00439026 124.23988007 33.78882507 124.24290466 34.59703064 C124.14885611 40.01607923 124.14885611 40.01607923 122.57532024 42.2068758 C120.25796426 43.89678157 118.8539715 43.8846269 115.99787903 43.89993286 C115.00929901 43.91247101 114.02071899 43.92500916 113.00218201 43.93792725 C111.91893143 43.93649216 110.83568085 43.93505707 109.71960449 43.93357849 C108.57799866 43.94377014 107.43639282 43.95396179 106.26019287 43.96446228 C102.4779782 43.99471289 98.69601629 44.00387687 94.91369629 44.01292419 C92.29480642 44.02976188 89.67592467 44.04791088 87.05705261 44.06732178 C80.86292681 44.11101579 74.66882739 44.13954481 68.4745943 44.16264516 C61.42258554 44.18968138 54.3707136 44.23359378 47.31880248 44.27893388 C32.81275349 44.37182158 18.30664602 44.44348339 3.80041504 44.50120544 C3.80041504 42.19120544 3.80041504 39.88120544 3.80041504 37.50120544 C4.63959473 37.73903748 4.63959473 37.73903748 5.49572754 37.98167419 C10.93895563 39.20870697 16.05440692 39.27720905 21.17541504 37.00120544 C25.74936903 32.64505878 27.99423533 28.17056752 28.23791504 21.81370544 C28.07307918 17.98951343 27.0755989 15.62958326 24.80041504 12.50120544 C24.80041504 11.84120544 24.80041504 11.18120544 24.80041504 10.50120544 C23.47702872 9.81500513 22.14091556 9.15334083 20.80041504 8.50120544 C20.03729004 8.12995544 19.27416504 7.75870544 18.48791504 7.37620544 C13.23172572 5.66488799 8.73667803 6.10786581 3.80041504 8.50120544 C3.80041504 7.51120544 3.80041504 6.52120544 3.80041504 5.50120544 C1.82041504 6.16120544 -0.15958496 6.82120544 -2.19958496 7.50120544 C-2.19878937 8.05386581 -2.19799377 8.60652618 -2.19717407 9.17593384 C-2.1947337 14.93539677 -2.23395914 20.6935135 -2.29724121 26.45262146 C-2.3153942 28.60099531 -2.32297099 30.7494859 -2.31970215 32.89793396 C-2.31684311 35.98926481 -2.35217861 39.07817829 -2.39489746 42.16917419 C-2.38580353 43.12768784 -2.37670959 44.08620148 -2.36734009 45.07376099 C-2.5098382 51.63193784 -2.5098382 51.63193784 -4.58868408 54.25184631 C-6.24987793 55.6469574 -6.24987793 55.6469574 -9.19958496 57.50120544 C-9.30093231 50.02655099 -9.37102846 42.55207344 -9.41931152 35.07688904 C-9.43943768 32.53352741 -9.46674133 29.99021211 -9.50134277 27.44700623 C-9.54981466 23.7930814 -9.57254413 20.13976789 -9.59020996 16.48558044 C-9.6108551 15.34691528 -9.63150024 14.20825012 -9.652771 13.03507996 C-9.65307312 11.97428223 -9.65337524 10.9134845 -9.65368652 9.82054138 C-9.66256897 8.88788452 -9.67145142 7.95522766 -9.68060303 6.99430847 C-8.64693032 1.63681208 -5.09903785 0.00116895 0 0 Z " fill="#FF8016" transform="translate(150.1995849609375,68.49879455566406)"/>
<path d="M0 0 C6.07837542 4.32963646 9.2222408 9.49989801 10.6875 16.8125 C10.1925 18.2975 10.1925 18.2975 9.6875 19.8125 C9.56120083 21.70698759 9.46000336 23.60321083 9.375 25.5 C8.80326495 32.67267606 7.12314823 37.93570105 1.625 42.75 C-4.00844624 46.70539842 -9.65848788 46.16456413 -16.3125 45.8125 C-20.5427056 44.84771627 -22.35086798 43.78864983 -25.3125 40.8125 C-26.61334946 39.85889988 -27.92660586 38.92205772 -29.25 38 C-33.84876735 34.60164619 -36.47920522 31.31238435 -38.3125 25.8125 C-39.10322743 19.4527922 -38.55847214 14.84925291 -34.82421875 9.57421875 C-32.55344654 6.92791832 -30.10880936 4.89347441 -27.3125 2.8125 C-26.9825 3.4725 -26.6525 4.1325 -26.3125 4.8125 C-25.6525 4.214375 -24.9925 3.61625 -24.3125 3 C-17.03520906 -2.30635798 -8.16546198 -4.8023218 0 0 Z " fill="#FFF3EB" transform="translate(126.3125,69.1875)"/>
<path d="M0 0 C3.96724754 2.01968966 6.47759883 3.73727671 8 8 C5 10 5 10 1 10 C1 9.34 1 8.68 1 8 C-1.97 8 -4.94 8 -8 8 C-8 9.32 -8 10.64 -8 12 C-7.25234375 12.25394531 -6.5046875 12.50789063 -5.734375 12.76953125 C-4.74953125 13.11371094 -3.7646875 13.45789063 -2.75 13.8125 C-1.77546875 14.14894531 -0.8009375 14.48539063 0.203125 14.83203125 C2.85948302 15.94132042 4.79689939 17.1693283 7 19 C7.09796875 18.41992188 7.1959375 17.83984375 7.296875 17.2421875 C8.409076 11.43189605 9.73006641 6.61106638 14.5703125 2.74609375 C18.73424935 0.06660973 21.99470336 -0.54603236 27 0 C30.4375 1 30.4375 1 33 2 C33 1.34 33 0.68 33 0 C37.75 0.875 37.75 0.875 40 2 C40 12.56 40 23.12 40 34 C37.69 34 35.38 34 33 34 C33 33.34 33 32.68 33 32 C32.0409375 32.495 32.0409375 32.495 31.0625 33 C25.58576713 34.78832094 20.90164849 34.93288416 15.6875 32.375 C12.71705577 29.74995627 11.0053686 27.39370071 9 24 C8.773125 24.7425 8.54625 25.485 8.3125 26.25 C6.733845 29.55765809 5.00385901 30.94858409 2 33 C-2.06875915 34.35625305 -5.74590556 34.52904411 -10 34 C-15.51724138 31.24137931 -15.51724138 31.24137931 -16.875 27.75 C-16.91625 27.1725 -16.9575 26.595 -17 26 C-14 24 -14 24 -11.875 24.3125 C-10 25 -10 25 -9 26 C-6.32941149 26.14115161 -3.67567762 26.04247107 -1 26 C-1.08697069 24.03554827 -1.08697069 24.03554827 -2 22 C-4.41084355 20.81579593 -4.41084355 20.81579593 -7.3125 20.0625 C-10.82318703 18.88619188 -12.85096391 18.12824036 -15.6875 15.6875 C-17.44952942 12.07953499 -17.70788933 9.96418023 -17 6 C-12.23521859 0.33455869 -7.0563862 -0.8657415 0 0 Z " fill="#FFFAF6" transform="translate(229,74)"/>
<path d="M0 0 C0.87527344 -0.01417969 1.75054687 -0.02835937 2.65234375 -0.04296875 C5.0625 0.1875 5.0625 0.1875 8.0625 2.1875 C8.3925 1.5275 8.7225 0.8675 9.0625 0.1875 C14.9375 1.0625 14.9375 1.0625 16.0625 2.1875 C16.15093793 4.63580426 16.17778752 7.05570599 16.16015625 9.50390625 C16.1587413 10.23496078 16.15732635 10.96601532 16.15586853 11.71922302 C16.15025408 14.06285632 16.13769922 16.40639539 16.125 18.75 C16.11998686 20.33528508 16.11542363 21.92057166 16.11132812 23.50585938 C16.10027997 27.3997761 16.08300572 31.29362205 16.0625 35.1875 C13.7525 35.1875 11.4425 35.1875 9.0625 35.1875 C8.7325 34.5275 8.4025 33.8675 8.0625 33.1875 C7.0725 33.6825 7.0725 33.6825 6.0625 34.1875 C2.32461745 35.43346085 -1.06179559 35.80426239 -4.9375 35.1875 C-10.6054068 32.24454839 -14.42076777 28.04187284 -16.9375 22.1875 C-17.72286619 16.57774151 -17.19955144 11.92273597 -13.9375 7.1875 C-9.5049765 2.81653933 -6.35943034 0.04669185 0 0 Z " fill="#FF8016" transform="translate(55.9375,72.8125)"/>
<path d="M0 0 C0.33 5.94 0.66 11.88 1 18 C1.99 17.34 2.98 16.68 4 16 C9.58867172 15.18032815 14.2911373 15.75611681 19 19 C23.52862992 23.59241344 26.13375583 26.65643842 26.09765625 33.2265625 C26.09443359 34.2578125 26.09121094 35.2890625 26.08789062 36.3515625 C26.07532227 37.97191406 26.07532227 37.97191406 26.0625 39.625 C26.05798828 40.71296875 26.05347656 41.8009375 26.04882812 42.921875 C26.03701776 45.61463789 26.02054778 48.30729188 26 51 C23.36 51 20.72 51 18 51 C17.99383667 50.03960815 17.99383667 50.03960815 17.98754883 49.05981445 C17.95453962 46.14312095 17.88388974 43.22849616 17.8125 40.3125 C17.80669922 39.30509766 17.80089844 38.29769531 17.79492188 37.25976562 C17.62493169 31.1075858 17.62493169 31.1075858 14.63671875 25.83203125 C12.10443953 23.81771333 12.10443953 23.81771333 9 23.375 C4.78721456 24.25266363 3.58070626 25.54057393 1 29 C0.24650293 32.7667415 0.20956985 36.47970274 0.1875 40.3125 C0.16236328 41.33923828 0.13722656 42.36597656 0.11132812 43.42382812 C0.05258915 45.949604 0.01621288 48.47365228 0 51 C-2.31 51 -4.62 51 -7 51 C-7 34.5 -7 18 -7 1 C-5 0 -5 0 0 0 Z " fill="#FF821A" transform="translate(9,57)"/>
<path d="M0 0 C4.52873353 2.85507114 7.28171666 5.23041109 9.1875 10.3125 C9.875 13.8125 9.875 13.8125 9.875 18.8125 C1.955 18.8125 -5.965 18.8125 -14.125 18.8125 C-11.80248574 23.69745525 -11.80248574 23.69745525 -9.125 24.8125 C-6.32888262 24.80374846 -3.54703501 24.68114073 -0.75390625 24.5546875 C1.875 24.8125 1.875 24.8125 3.72265625 26.3203125 C4.10292969 26.81273438 4.48320312 27.30515625 4.875 27.8125 C3.875 30.8125 3.875 30.8125 1.9375 32 C-3.85021057 33.53551505 -9.07949499 33.8352525 -14.5 31.125 C-18.76497726 27.36775813 -21.6962499 24.17194702 -22.43359375 18.39453125 C-22.72845985 12.05937785 -22.06115275 8.23953172 -17.83203125 3.40625 C-12.48582465 -1.58517401 -6.8206549 -2.59184886 0 0 Z " fill="#FFF8F4" transform="translate(202.125,75.1875)"/>
<path d="M0 0 C3.99260452 3.31959145 7.57934208 7.94613274 8.30078125 13.18359375 C8.32529374 17.89816252 8.25709654 21.29364876 5 25 C1.06133482 27.29755469 -2.51008876 27.38706131 -7 27 C-12.09291651 25.3316308 -15.90180159 23.45366022 -19 19 C-19.69185905 14.6923538 -18.88296089 11.34393528 -16.49609375 7.7109375 C-11.73376325 2.05374144 -7.7356027 -1.20035214 0 0 Z " fill="#FF7F15" transform="translate(118,77)"/>
<path d="M0 0 C3.96724754 2.01968966 6.47759883 3.73727671 8 8 C5 10 5 10 1 10 C1 9.34 1 8.68 1 8 C-1.97 8 -4.94 8 -8 8 C-8 9.32 -8 10.64 -8 12 C-7.25234375 12.25394531 -6.5046875 12.50789063 -5.734375 12.76953125 C-4.74953125 13.11371094 -3.7646875 13.45789063 -2.75 13.8125 C-1.77546875 14.14894531 -0.8009375 14.48539063 0.203125 14.83203125 C2.85948302 15.94132042 4.79689939 17.1693283 7 19 C7.33 16.69 7.66 14.38 8 12 C8.33 12 8.66 12 9 12 C9.21590343 17.96133366 9.3512377 23.40181499 7 29 C2.43720821 33.44579713 -1.53758176 34.35560673 -7.70703125 34.28515625 C-11.27521966 33.84141221 -13.3672041 32.36951631 -16 30 C-16.875 27.75 -16.875 27.75 -17 26 C-14 24 -14 24 -11.875 24.3125 C-10 25 -10 25 -9 26 C-6.32941149 26.14115161 -3.67567762 26.04247107 -1 26 C-1.08697069 24.03554827 -1.08697069 24.03554827 -2 22 C-4.41084355 20.81579593 -4.41084355 20.81579593 -7.3125 20.0625 C-10.82318703 18.88619188 -12.85096391 18.12824036 -15.6875 15.6875 C-17.44952942 12.07953499 -17.70788933 9.96418023 -17 6 C-12.23521859 0.33455869 -7.0563862 -0.8657415 0 0 Z " fill="#FFF7F2" transform="translate(229,74)"/>
<path d="M0 0 C1.65 0 3.3 0 5 0 C5 16.83 5 33.66 5 51 C2.69 51 0.38 51 -2 51 C-2.05058729 44.05829978 -2.08568579 37.11664685 -2.10986328 30.17480469 C-2.11993924 27.81183089 -2.13360029 25.44886961 -2.15087891 23.0859375 C-2.17505724 19.69528112 -2.18646699 16.30478916 -2.1953125 12.9140625 C-2.20563507 11.85256989 -2.21595764 10.79107727 -2.22659302 9.69741821 C-2.22674408 8.71655243 -2.22689514 7.73568665 -2.22705078 6.72509766 C-2.23371262 5.42603989 -2.23371262 5.42603989 -2.24050903 4.10073853 C-2 2 -2 2 0 0 Z " fill="#FF7D0F" transform="translate(80,57)"/>
<path d="M0 0 C2.8125 2.4375 2.8125 2.4375 5 5 C5.33 5.33 5.66 5.66 6 6 C6.43612335 14.86784141 6.43612335 14.86784141 4 18 C0.96134393 20.5177436 -0.5815106 21 -4.5625 21 C-8.63467799 19.8153664 -9.76341976 18.52691499 -12 15 C-13.45147903 12.09704195 -13.37239025 10.22738221 -13 7 C-9.6296796 1.55466891 -6.45825332 -0.75979451 0 0 Z " fill="#FFF9F5" transform="translate(59,80)"/>
<path d="M0 0 C3.1339294 2.9295427 4.80261456 4.79101418 5.5 9.0625 C4.93516605 12.38089948 4.01389488 14.31480682 2 17 C-1.51824511 19.34549674 -2.85775694 19.57991403 -7 19 C-10.53662065 16.01352034 -12.74387886 13.87822171 -13.375 9.25 C-12.8528401 4.7246142 -11.15770622 3.2328897 -8 0 C-4.95588012 -1.52205994 -3.23094106 -0.95027678 0 0 Z " fill="#FF821A" transform="translate(257,82)"/>
<path d="M0 0 C3.72262577 0.09493035 4.16140372 0.47716575 7.1875 3.125 C9.36374741 6.79741751 9.8967595 8.33310042 9.1875 12.5 C7.51987678 15.99406769 6.44743978 17.32670681 3.1875 19.5 C-0.82986355 20.11133793 -2.31179299 19.86718514 -5.625 17.4375 C-8.24093493 13.92467309 -8.8125 11.86418555 -8.8125 7.5 C-6.66850329 2.90572133 -5.15490825 0.67605354 0 0 Z " fill="#FF8118" transform="translate(162.8125,81.5)"/>
<path d="M0 0 C4.72969101 3.3380523 8.09245167 7.15732864 9.6875 12.8125 C9.23046875 14.96484375 9.23046875 14.96484375 8.6875 16.8125 C8.40777344 16.28140625 8.12804687 15.7503125 7.83984375 15.203125 C4.21258272 8.81168113 0.73509272 6.16169757 -6.3125 3.8125 C-13.31562763 3.07532867 -18.56969916 4.65834338 -24.3125 8.8125 C-25.9856589 10.87911864 -27.24892889 12.88227946 -28.47265625 15.23828125 C-28.88837891 16.01751953 -28.88837891 16.01751953 -29.3125 16.8125 C-29.6425 16.8125 -29.9725 16.8125 -30.3125 16.8125 C-29.87580642 11.35383027 -28.87362098 8.01279654 -25.3125 3.8125 C-17.85530545 -1.86844287 -8.66174961 -5.16466939 0 0 Z " fill="#FF841C" transform="translate(126.3125,69.1875)"/>
<path d="M0 0 C4.21228561 1.56010578 6.34546845 4.4845393 9 8 C11.04628787 14.1388636 11.10571965 21.50016765 8.375 27.4375 C5.6701917 32.05781311 2.1368433 35.2877189 -3 37 C-4.97654185 37.11953769 -6.95738456 37.17526196 -8.9375 37.1875 C-9.97777344 37.20167969 -11.01804687 37.21585938 -12.08984375 37.23046875 C-14.95046613 37.00392282 -16.57670151 36.47733619 -19 35 C-18.29875 34.98582031 -17.5975 34.97164062 -16.875 34.95703125 C-10.19811144 34.62137245 -4.94019998 33.76542875 0 29 C3.85583172 23.24987886 5.93883498 16.95479069 5 10 C3.91204116 7.17625229 2.52478738 4.60867238 1 2 C0.67 1.34 0.34 0.68 0 0 Z " fill="#FF841C" transform="translate(125,78)"/>
<path d="M0 0 C0 3 0 3 -1.5 5.6875 C-3.77244571 10.70581761 -3.9115151 14.50927561 -2.05078125 19.59375 C0.70626973 25.50792875 3.40473328 29.10249812 9.25 32.1875 C13.11587551 33.32969049 16.99261388 33.66823383 21 34 C18.19782079 36.80217921 16.2894947 36.39941341 12.375 36.5 C6.44804956 36.41498227 2.95475857 35.71169781 -1.44921875 31.72265625 C-6.47116074 26.14412623 -8.41038381 21.15300533 -8.35546875 13.640625 C-7.59258232 7.97346868 -4.01634672 3.85145272 0 0 Z " fill="#FF8218" transform="translate(96,74)"/>
<path d="M0 0 C2.375 1.9375 2.375 1.9375 4 4 C4 4.66 4 5.32 4 6 C-1.28 6 -6.56 6 -12 6 C-10 1 -10 1 -8.25 -0.375 C-5.11764387 -1.24509892 -3.11211491 -0.90770018 0 0 Z " fill="#FF8217" transform="translate(200,82)"/>
<path d="M0 0 C2.125 0.375 2.125 0.375 4 1 C3.01 1 2.02 1 1 1 C0.06210302 3.81369094 -0.14931982 5.643105 -0.20532227 8.56323242 C-0.2352401 9.94432442 -0.2352401 9.94432442 -0.26576233 11.35331726 C-0.28247482 12.34402725 -0.29918732 13.33473724 -0.31640625 14.35546875 C-0.33718735 15.37224197 -0.35796844 16.3890152 -0.37937927 17.43659973 C-0.44480048 20.68683063 -0.50372537 23.93714277 -0.5625 27.1875 C-0.60569227 29.38998238 -0.64930679 31.59245653 -0.69335938 33.79492188 C-0.80047427 39.19652853 -0.90225457 44.59821612 -1 50 C0.98 50 2.96 50 5 50 C5 50.33 5 50.66 5 51 C2.69 51 0.38 51 -2 51 C-2.05058729 44.05829978 -2.08568579 37.11664685 -2.10986328 30.17480469 C-2.11993924 27.81183089 -2.13360029 25.44886961 -2.15087891 23.0859375 C-2.17505724 19.69528112 -2.18646699 16.30478916 -2.1953125 12.9140625 C-2.20563507 11.85256989 -2.21595764 10.79107727 -2.22659302 9.69741821 C-2.22674408 8.71655243 -2.22689514 7.73568665 -2.22705078 6.72509766 C-2.23371262 5.42603989 -2.23371262 5.42603989 -2.24050903 4.10073853 C-2 2 -2 2 0 0 Z " fill="#FF8927" transform="translate(80,57)"/>
<path d="M0 0 C0.33 0 0.66 0 1 0 C0.66666667 2.33333333 0.33333333 4.66666667 0 7 C-0.144375 8.258125 -0.28875 9.51625 -0.4375 10.8125 C-1 14 -1 14 -3 16 C-3.33 14.68 -3.66 13.36 -4 12 C-4.33 14.31 -4.66 16.62 -5 19 C-5.33 19 -5.66 19 -6 19 C-6.29466691 13.30310639 -6.00704792 10.01174654 -3 5 C-2.46375 4.05125 -1.9275 3.1025 -1.375 2.125 C-0.92125 1.42375 -0.4675 0.7225 0 0 Z " fill="#FFE5D3" transform="translate(98,72)"/>
<path d="M0 0 C0.66 0 1.32 0 2 0 C2.70226141 1.24176695 3.38629109 2.49385599 4.0625 3.75 C4.44535156 4.44609375 4.82820312 5.1421875 5.22265625 5.859375 C6.1312406 8.36140628 5.88336837 9.5332355 5 12 C4.18639005 10.70903219 3.37414954 9.41720125 2.5625 8.125 C1.88380859 7.04605469 1.88380859 7.04605469 1.19140625 5.9453125 C0 4 0 4 -1 2 C-0.67 1.34 -0.34 0.68 0 0 Z " fill="#FF8E2F" transform="translate(130,74)"/>
</svg>
