<?xml version="1.0" encoding="UTF-8"?>
<svg version="1.1" xmlns="http://www.w3.org/2000/svg" width="330" height="299">
<path d="M0 0 C2.2006751 0.73196136 4.41572998 1.40280762 6.63574219 2.07373047 C41.72114245 12.95564896 76.19073313 29.42250403 108.01855469 47.67138672 C108.99469727 48.22536133 109.97083984 48.77933594 110.9765625 49.35009766 C130.215127 60.28345618 148.56673722 72.05694942 166.01855469 85.67138672 C166.61571289 86.12868164 167.21287109 86.58597656 167.828125 87.05712891 C181.19749344 97.35665901 190.35753393 109.78213658 194.01855469 126.67138672 C195.63157213 147.33358401 191.89820951 164.0828268 178.22143555 180.19995117 C160.56889298 199.97677737 133.77147282 212.80207152 111.01855469 225.67138672 C110.13731934 226.17057617 109.25608398 226.66976562 108.34814453 227.18408203 C58.89734969 255.03557234 6.25065808 277.59478637 -48.66894531 292.17138672 C-49.58321289 292.41493896 -50.49748047 292.65849121 -51.43945312 292.90942383 C-68.70573183 297.31944667 -88.94593148 297.40359722 -104.98144531 288.67138672 C-121.72829684 277.98885469 -130.94921504 264.62909509 -135.52783203 245.37353516 C-144.19774789 193.72734099 -127.2350178 131.57994935 -114.91894531 81.48388672 C-114.71724731 80.65380096 -114.51554932 79.82371521 -114.30773926 78.96847534 C-107.47351223 51.00770891 -96.45329552 24.64425419 -71.19873047 8.53417969 C-50.04159218 -4.20913748 -23.65628227 -7.8874421 0 0 Z " fill="#123273" transform="translate(135.9814453125,3.32861328125)"/>
<path d="M0 0 C10.56 0 21.12 0 32 0 C31.175 3.7125 30.35 7.425 29.5 11.25 C27.74196702 19.65115097 26.52391616 27.78044872 26.5625 36.375 C26.56636719 37.62071777 26.56636719 37.62071777 26.5703125 38.89160156 C26.6675577 42.74089087 26.82250084 44.73375125 29 48 C32.69419796 47.64399277 32.69419796 47.64399277 35.40625 45.3125 C41.40359863 32.63239148 44.38167533 19.34288086 46.421875 5.53515625 C47 2 47 2 48 0 C58.56 0 69.12 0 80 0 C78.72585169 8.91903815 77.37669778 17.55511216 75.4375 26.3125 C75.18572998 27.4682251 74.93395996 28.6239502 74.67456055 29.81469727 C74.10863769 32.40793676 73.54074254 35.00065865 72.96972656 37.59277344 C72.07725621 41.64488978 71.19115339 45.69838025 70.30595398 49.75209045 C63.24623011 82.07727975 63.24623011 82.07727975 60 96 C52.08 96 44.16 96 36 96 C36 87.00961538 36 87.00961538 36.65625 82.36328125 C36.79160156 81.37392578 36.92695312 80.38457031 37.06640625 79.36523438 C37.20949219 78.35783203 37.35257813 77.35042969 37.5 76.3125 C37.78424995 74.2881794 38.06560393 72.26344957 38.34375 70.23828125 C38.46943359 69.35180908 38.59511719 68.46533691 38.72460938 67.55200195 C38.99861984 65.01278975 39.04817311 62.55174094 39 60 C38.6596875 60.45890625 38.319375 60.9178125 37.96875 61.390625 C33.50983209 67.03542533 29.34754395 70.37892229 22.1015625 71.4140625 C13.87279888 71.80788242 9.33400179 69.88044346 3.3203125 64.49609375 C-3.33732202 57.62316259 -5.4763044 48.59098547 -5.45385742 39.26000977 C-5.42783447 38.26670654 -5.40181152 37.27340332 -5.375 36.25 C-5.35993408 35.20448975 -5.34486816 34.15897949 -5.3293457 33.08178711 C-5.07930547 21.38405648 -3.72980944 11.18942831 0 0 Z " fill="#FCCF01" transform="translate(58,101)"/>
<path d="M0 0 C1.56146773 1.0090617 3.10935527 2.03904935 4.65625 3.0703125 C4.65625 1.7503125 4.65625 0.4303125 4.65625 -0.9296875 C13.23625 -0.9296875 21.81625 -0.9296875 30.65625 -0.9296875 C30.00775252 9.70567119 28.60668995 20.15461973 27.12402344 30.69970703 C26.21111278 37.27780964 25.3431216 43.86199816 24.46875 50.4453125 C24.28805248 51.80331041 24.10730812 53.1613021 23.92651367 54.51928711 C23.50275958 57.70291795 23.0794549 60.88660861 22.65625 64.0703125 C13.74625 64.0703125 4.83625 64.0703125 -4.34375 64.0703125 C-4.34375 62.7503125 -4.34375 61.4303125 -4.34375 60.0703125 C-5.32601562 60.61171875 -5.32601562 60.61171875 -6.328125 61.1640625 C-14.33280063 65.23423655 -21.33345509 66.84203554 -30.11328125 64.25390625 C-36.54482304 61.48651121 -40.4018843 57.40997881 -43.34375 51.0703125 C-46.52396153 39.76289373 -45.15235991 25.62543457 -40.34375 15.0703125 C-38.62477293 12.07324873 -36.72016647 9.57270767 -34.34375 7.0703125 C-33.81910156 6.51730469 -33.29445312 5.96429688 -32.75390625 5.39453125 C-23.808261 -3.0880453 -11.01900402 -6.30324383 0 0 Z " fill="#FBCE01" transform="translate(179.34375,115.9296875)"/>
<path d="M0 0 C1.04558068 4.01176701 0.89063073 7.11541198 0.1875 11.1875 C0.01605469 12.23292969 -0.15539062 13.27835938 -0.33203125 14.35546875 C-1 17 -1 17 -3 19 C-4.07314453 18.566875 -4.07314453 18.566875 -5.16796875 18.125 C-12.99166984 15.21008937 -19.68866544 14.51740638 -28 15 C-27.505 16.485 -27.505 16.485 -27 18 C-24.45836522 19.05753335 -21.98361461 19.95867692 -19.375 20.8125 C-11.83296939 23.46530019 -6.74501876 26.10384434 -2.0625 32.75 C-0.12048952 38.69026735 0.00452618 44.47419109 -2.5625 50.25 C-6.99072131 57.9029539 -13.76401625 61.41797937 -22 64 C-34.04559511 67.0828557 -50.07574466 65.9681205 -61 60 C-60.71897755 57.04029545 -60.4257082 54.082712 -60.125 51.125 C-60.04636719 50.28324219 -59.96773437 49.44148438 -59.88671875 48.57421875 C-59.76103516 47.36572266 -59.76103516 47.36572266 -59.6328125 46.1328125 C-59.55949707 45.38918457 -59.48618164 44.64555664 -59.41064453 43.87939453 C-59 42 -59 42 -57 40 C-56.50371094 40.26554687 -56.00742188 40.53109375 -55.49609375 40.8046875 C-47.72223974 44.84650154 -40.79986068 46.69176236 -32 46 C-31.01 45.505 -31.01 45.505 -30 45 C-30 44.34 -30 43.68 -30 43 C-30.99 42.63648438 -31.98 42.27296875 -33 41.8984375 C-50.30315272 35.38237682 -50.30315272 35.38237682 -55 27.75 C-56.68857797 21.41783262 -57.33021537 15.6635472 -54.0625 9.75 C-49.21707576 3.03155462 -42.15296194 -0.66423412 -34.20703125 -2.53125 C-22.44623144 -4.25024632 -11.43007798 -3.04319033 0 0 Z " fill="#FACE02" transform="translate(270,116)"/>
<path d="M0 0 C9.24 0 18.48 0 28 0 C26 12 26 12 24 19 C15.42 19 6.84 19 -2 19 C-1.34 12.73 -0.68 6.46 0 0 Z " fill="#FACE01" transform="translate(90,206)"/>
<path d="M0 0 C3.04323992 3.04323992 3.23492368 6.06108516 3.375 10.1875 C3.14427863 17.96910273 1.40739037 26.14199377 -4 32 C-7.5 33.1875 -7.5 33.1875 -11 33 C-13.817047 30.31351133 -14.90227419 28.63714153 -15.49609375 24.765625 C-15.33828264 15.29695859 -14.87614975 7.09796103 -8 0 C-5.00422405 -1.49788797 -3.16806651 -0.90516186 0 0 Z " fill="#183670" transform="translate(177,131)"/>
</svg>
