<?xml version="1.0" encoding="UTF-8"?>
<svg version="1.1" xmlns="http://www.w3.org/2000/svg" width="600" height="600">
<path d="M0 0 C198 0 396 0 600 0 C600 198 600 396 600 600 C402 600 204 600 0 600 C0 402 0 204 0 0 Z " fill="#FEFEFE" transform="translate(0,0)"/>
<path d="M0 0 C1.57998779 -0.00821777 1.57998779 -0.00821777 3.19189453 -0.01660156 C29.62096616 0.22445618 52.39123767 12.45048808 71.25 30.3125 C90.8274416 50.76071738 98.18302725 76.64535991 97.6875 104.35546875 C96.5833683 129.51241942 83.1198238 153.13959933 65.25 170.3125 C56.80973265 177.7563469 47.39160067 182.66171659 37.25 187.3125 C36.36570313 187.7353125 35.48140625 188.158125 34.5703125 188.59375 C13.77419507 197.83646886 -12.31512522 196.61856242 -33.3125 189.0625 C-59.52948423 178.35325917 -79.38165522 159.46030649 -90.75 133.3125 C-99.59326491 109.60100393 -99.61471365 82.32422459 -89.5625 58.9375 C-77.90360552 33.57711566 -58.21688231 15.12890795 -32.1875 5 C-30.38398398 4.40932881 -28.57090961 3.84715006 -26.75 3.3125 C-25.78964844 3.01472656 -24.82929687 2.71695313 -23.83984375 2.41015625 C-15.88179559 0.31186166 -8.19926901 0.03119874 0 0 Z " fill="#ED1E26" transform="translate(126.75,195.6875)"/>
<path d="M0 0 C-2.16948585 2.16948585 -3.9809249 3.02446052 -6.75 4.3125 C-16.89331817 9.36232985 -23.00760974 16.87176856 -26.875 27.625 C-28.17588281 32.0384245 -28.63665917 36.4219056 -29 41 C-28.26136719 41.14695313 -27.52273437 41.29390625 -26.76171875 41.4453125 C-12.72360273 44.54903828 -1.07911419 51.53076483 7.375 63.375 C14.65031351 75.44540651 15.9154537 88.04373798 13.26953125 101.796875 C8.93617229 116.86635188 -0.18689222 129.25971904 -14 137 C-27.64053672 143.02166359 -42.8220679 144.3701912 -57.00390625 139.32421875 C-69.29630788 133.8912016 -78.2117996 125.49365749 -85 114 C-85.45375 113.25234375 -85.9075 112.5046875 -86.375 111.734375 C-94.32689023 97.43990567 -95.05232752 79.65790948 -90.97729492 64.06201172 C-84.29639792 41.2029459 -68.67340394 22.47972909 -48 11 C-32.40904502 2.47200567 -17.72090728 -0.78954537 0 0 Z " fill="#FEFDFD" transform="translate(166,205)"/>
<path d="M0 0 C1.08849747 -0.00761353 2.17699493 -0.01522705 3.29847717 -0.02307129 C5.5973176 -0.03386247 7.89620701 -0.0367294 10.19506836 -0.03222656 C13.70705102 -0.03125432 17.21684828 -0.07288866 20.72851562 -0.1171875 C22.9648392 -0.12239475 25.20117036 -0.12508269 27.4375 -0.125 C28.48453598 -0.14139526 29.53157196 -0.15779053 30.6103363 -0.17468262 C38.74377439 -0.09780175 38.74377439 -0.09780175 42.43188477 2.88085938 C45.61018501 6.37603342 45.90926739 7.87341135 45.8828125 12.4765625 C45.87797852 13.95576172 45.87797852 13.95576172 45.87304688 15.46484375 C45.86047852 17.01365234 45.86047852 17.01365234 45.84765625 18.59375 C45.84314453 19.63402344 45.83863281 20.67429688 45.83398438 21.74609375 C45.82217577 24.32036962 45.805707 26.89453146 45.78515625 29.46875 C43.47515625 28.80875 41.16515625 28.14875 38.78515625 27.46875 C38.78515625 21.85875 38.78515625 16.24875 38.78515625 10.46875 C22.28515625 10.46875 5.78515625 10.46875 -11.21484375 10.46875 C-10.88484375 23.33875 -10.55484375 36.20875 -10.21484375 49.46875 C-9.55484375 48.47875 -8.89484375 47.48875 -8.21484375 46.46875 C-7.55484375 46.46875 -6.89484375 46.46875 -6.21484375 46.46875 C-4.59375 48.1484375 -4.59375 48.1484375 -2.77734375 50.34375 C-0.63083491 52.93068722 0.95292187 54.58059374 3.78515625 56.46875 C9.07071867 56.24666755 12.53391263 51.29895826 15.95703125 47.7265625 C20.39207045 42.82168446 23.55509522 37.21277363 26.78515625 31.46875 C27.78049501 29.79929544 28.77884693 28.13161479 29.78515625 26.46875 C34.29918135 28.18136725 38.59650951 30.26516955 42.9296875 32.3828125 C43.69947433 32.75731537 44.46926117 33.13181824 45.26237488 33.51766968 C47.70826771 34.70806371 50.15297478 35.9008705 52.59765625 37.09375 C54.2609899 37.90380563 55.92440052 38.71370321 57.58789062 39.5234375 C61.65453963 41.50337907 65.72012728 43.4854846 69.78515625 45.46875 C65.50635954 56.74699914 54.68760188 62.34609715 44.22265625 67.15625 C28.72724296 73.2060965 4.63764672 76.75291349 -11.21484375 71.46875 C-11.21484375 79.71875 -11.21484375 87.96875 -11.21484375 96.46875 C4.95515625 96.46875 21.12515625 96.46875 37.78515625 96.46875 C37.78515625 88.54875 37.78515625 80.62875 37.78515625 72.46875 C42.78515625 70.46875 42.78515625 70.46875 45.78515625 70.46875 C45.93757169 77.05210631 46.04248182 83.63500608 46.11474609 90.21972656 C46.14487728 92.45850629 46.1857909 94.69716837 46.23779297 96.93554688 C46.31076692 100.15784755 46.34464993 103.37858492 46.37109375 106.6015625 C46.41754532 108.09721237 46.41754532 108.09721237 46.4649353 109.62307739 C46.46724735 114.42139607 46.35530334 117.52290195 42.93603516 121.08544922 C39.14634422 123.95194255 36.74375676 124.59001192 32.13354492 124.66162109 C31.19214157 124.67768402 30.25073822 124.69374695 29.2808075 124.71029663 C24.98075166 124.7548537 20.68084799 124.79580347 16.38061523 124.81884766 C14.11390926 124.83541073 11.84725558 124.86270514 9.58081055 124.90087891 C6.30880706 124.95568633 3.03802589 124.97752734 -0.234375 124.9921875 C-1.7487188 125.02619156 -1.7487188 125.02619156 -3.2936554 125.06088257 C-11.15683507 125.03731406 -11.15683507 125.03731406 -14.77612305 122.18603516 C-18.16795057 118.40677394 -19.46981891 115.87422952 -19.44189453 110.79199219 C-19.44174347 109.87133972 -19.44159241 108.95068726 -19.44143677 108.00213623 C-19.4311142 107.01658752 -19.42079163 106.03103882 -19.41015625 105.015625 C-19.40732635 104.00026672 -19.40449646 102.98490845 -19.40158081 101.93878174 C-19.39039376 98.69865084 -19.36529166 95.45879724 -19.33984375 92.21875 C-19.32981205 90.02083733 -19.32068653 87.82292032 -19.3125 85.625 C-19.29045926 80.23948886 -19.25699626 74.85413924 -19.21484375 69.46875 C-20.46458984 69.48228516 -21.71433594 69.49582031 -23.00195312 69.50976562 C-26.77763722 69.55065751 -30.05710685 68.96631461 -33.71484375 67.96875 C-34.75640625 67.6903125 -35.79796875 67.411875 -36.87109375 67.125 C-37.64453125 66.9084375 -38.41796875 66.691875 -39.21484375 66.46875 C-39.21484375 66.13875 -39.21484375 65.80875 -39.21484375 65.46875 C-38.42980469 65.29859375 -37.64476562 65.1284375 -36.8359375 64.953125 C-35.78535156 64.71078125 -34.73476563 64.4684375 -33.65234375 64.21875 C-32.10353516 63.87070312 -32.10353516 63.87070312 -30.5234375 63.515625 C-24.87021666 61.85750689 -24.87021666 61.85750689 -20.21484375 58.46875 C-19.18111999 54.76626262 -19.33243355 51.13791873 -19.41796875 47.31640625 C-19.41279236 46.22412216 -19.40761597 45.13183807 -19.40228271 44.00645447 C-19.39037236 40.51380441 -19.42495244 37.02366178 -19.46484375 33.53125 C-19.48359434 30.0429188 -19.49234101 26.55513164 -19.48455811 23.0667572 C-19.48187908 20.89643341 -19.49563337 18.72601275 -19.52764893 16.55592346 C-19.55429614 7.15458658 -19.55429614 7.15458658 -16.21484375 3.46875 C-11.58780653 -0.68460871 -5.87514801 0.00112801 0 0 Z " fill="#ED232A" transform="translate(431.21484375,195.53125)"/>
<path d="M0 0 C4.5140251 1.71261725 8.81135326 3.79641955 13.14453125 5.9140625 C13.91431808 6.28856537 14.68410492 6.66306824 15.47721863 7.04891968 C17.92311146 8.23931371 20.36781853 9.4321205 22.8125 10.625 C24.47583365 11.43505563 26.13924427 12.24495321 27.80273438 13.0546875 C31.86938338 15.03462907 35.93497103 17.0167346 40 19 C35.72120329 30.27824914 24.90244563 35.87734715 14.4375 40.6875 C-1.05791329 46.7373465 -25.14750953 50.28416349 -41 45 C-41.08724706 41.5834948 -41.14047325 38.16727687 -41.1875 34.75 C-41.21263672 33.78191406 -41.23777344 32.81382812 -41.26367188 31.81640625 C-41.27333984 30.88183594 -41.28300781 29.94726562 -41.29296875 28.984375 C-41.3086792 28.12553711 -41.32438965 27.26669922 -41.34057617 26.38183594 C-40.92586985 23.48156719 -40.00490394 22.1069618 -38 20 C-37.34 20 -36.68 20 -36 20 C-34.37890625 21.6796875 -34.37890625 21.6796875 -32.5625 23.875 C-30.41599116 26.46193722 -28.83223438 28.11184374 -26 30 C-20.71443758 29.77791755 -17.25124362 24.83020826 -13.828125 21.2578125 C-9.3930858 16.35293446 -6.23006103 10.74402363 -3 5 C-2.00466124 3.33054544 -1.00630932 1.66286479 0 0 Z " fill="#60A847" transform="translate(461,222)"/>
<path d="M0 0 C0.86044922 -0.02900391 1.72089844 -0.05800781 2.60742188 -0.08789062 C9.38877102 -0.15432434 15.82170104 1.05522382 20.94018555 5.83129883 C25.01384198 10.59923793 25.54325879 13.98095403 25.625 20.0625 C25.65400391 20.76632812 25.68300781 21.47015625 25.71289062 22.1953125 C25.78467933 28.13720845 23.94426605 31.60178097 19.75 35.921875 C15.19166777 39.53881253 12.19635542 41.59866221 6.3125 41.5 C5.466875 41.49355469 4.62125 41.48710937 3.75 41.48046875 C1.3125 41.3125 1.3125 41.3125 -2.6875 40.3125 C-2.6875 45.5925 -2.6875 50.8725 -2.6875 56.3125 C-6.3175 56.3125 -9.9475 56.3125 -13.6875 56.3125 C-13.6875 38.1625 -13.6875 20.0125 -13.6875 1.3125 C-9.02210683 0.14615171 -4.78484449 0.05258071 0 0 Z " fill="#ED232B" transform="translate(426.6875,347.6875)"/>
<path d="M0 0 C1.95292969 0.05027344 1.95292969 0.05027344 3.9453125 0.1015625 C6.94380731 0.27345074 9.89492806 0.51348308 12.875 0.875 C16.55154702 1.57255736 16.55154702 1.57255736 19.625 0.3125 C26.60075457 -0.21782052 32.52648564 -0.29682483 38.625 3.3125 C42.84736581 6.9718837 45.44026001 9.77699329 45.85205078 15.42871094 C45.84157715 16.62270508 45.83110352 17.81669922 45.8203125 19.046875 C45.81386719 20.34238281 45.80742187 21.63789063 45.80078125 22.97265625 C45.78407193 24.33594019 45.76714206 25.69922144 45.75 27.0625 C45.7399634 28.44139985 45.73083873 29.82030665 45.72265625 31.19921875 C45.69908093 34.57048882 45.6661727 37.94140636 45.625 41.3125 C41.995 41.3125 38.365 41.3125 34.625 41.3125 C34.295 31.7425 33.965 22.1725 33.625 12.3125 C28.43930466 9.87921088 28.43930466 9.87921088 21.625 10.3125 C21.295 20.2125 20.965 30.1125 20.625 40.3125 C17.325 40.3125 14.025 40.3125 10.625 40.3125 C10.62089111 39.54583008 10.61678223 38.77916016 10.61254883 37.98925781 C10.57963865 34.51288955 10.50899547 31.03827979 10.4375 27.5625 C10.43169922 26.3559375 10.42589844 25.149375 10.41992188 23.90625 C10.39091797 22.74609375 10.36191406 21.5859375 10.33203125 20.390625 C10.3163208 19.32231445 10.30061035 18.25400391 10.28442383 17.15332031 C9.82739244 14.16044154 9.82739244 14.16044154 7.51831055 11.93261719 C4.15972674 9.74249935 4.15972674 9.74249935 -2.375 10.3125 C-2.705 20.5425 -3.035 30.7725 -3.375 41.3125 C-7.005 41.3125 -10.635 41.3125 -14.375 41.3125 C-14.375 29.1025 -14.375 16.8925 -14.375 4.3125 C-6.48323588 -0.1970795 -6.48323588 -0.1970795 0 0 Z " fill="#ED242C" transform="translate(338.375,347.6875)"/>
<path d="M0 0 C0 12.21 0 24.42 0 37 C-3.3 37 -6.6 37 -10 37 C-10 36.01 -10 35.02 -10 34 C-10.78375 34.66 -11.5675 35.32 -12.375 36 C-16.69876151 38.84511665 -20.99892209 38.87344946 -26 38 C-31.31430454 35.99442768 -35.38851568 32.46647175 -38.14453125 27.5 C-40.27032928 21.28762221 -40.33855724 14.39750164 -37.92578125 8.2734375 C-36.47135739 5.89057321 -34.95089122 3.9931183 -33 2 C-32.46632813 1.4534375 -31.93265625 0.906875 -31.3828125 0.34375 C-22.60474009 -6.67870793 -9.47044632 -3.15681544 0 0 Z " fill="#ED2129" transform="translate(570,351)"/>
<path d="M0 0 C5.91476883 -0.4160235 9.47345956 0.52144498 13.984375 4.4296875 C19.78777482 10.68773155 19.6796875 15.35930428 19.6796875 24.2578125 C10.7696875 24.2578125 1.8596875 24.2578125 -7.3203125 24.2578125 C-5.15364583 30.09114583 -5.15364583 30.09114583 -2.3203125 31.2578125 C-0.79882924 31.34153909 0.72624528 31.36511277 2.25 31.35546875 C3.59384766 31.35063477 3.59384766 31.35063477 4.96484375 31.34570312 C5.90199219 31.33732422 6.83914063 31.32894531 7.8046875 31.3203125 C9.22201172 31.31354492 9.22201172 31.31354492 10.66796875 31.30664062 C13.00527137 31.29483607 15.34244811 31.27837009 17.6796875 31.2578125 C17.6796875 33.5678125 17.6796875 35.8778125 17.6796875 38.2578125 C10.24272797 41.75755816 2.275876 42.84519289 -5.7578125 40.56640625 C-11.44275951 37.99310637 -14.89227753 34.1818841 -17.6328125 28.5703125 C-19.1324421 21.34482442 -19.38811964 14.50040785 -15.5859375 7.98046875 C-12.87119168 4.28539805 -10.07313831 1.77569285 -5.5703125 0.4453125 C-3.71070996 0.33802774 -1.85130198 0.20570022 0 0 Z " fill="#ED262E" transform="translate(474.3203125,347.7421875)"/>
<path d="M0 0 C0.70705078 -0.00322266 1.41410156 -0.00644531 2.14257812 -0.00976562 C5.88595915 0.0288984 8.7614433 0.24187602 11.9375 2.3125 C11.9375 4.9525 11.9375 7.5925 11.9375 10.3125 C10.803125 10.1475 9.66875 9.9825 8.5 9.8125 C3.96689706 9.23673916 -0.49997238 9.21744734 -5.0625 9.3125 C-5.0625 10.9625 -5.0625 12.6125 -5.0625 14.3125 C-2.08512063 15.61510348 0.77123197 16.51586739 3.9375 17.1875 C7.72453774 18.08951655 10.10884293 19.56955981 12.9375 22.3125 C14.67868455 25.7948691 14.51698084 29.51294946 13.9375 33.3125 C10.97234445 37.32418103 7.63592713 39.68940699 2.9375 41.3125 C-4.09729026 42.02773634 -9.82305291 41.71583478 -16.0625 38.3125 C-16.0625 35.6725 -16.0625 33.0325 -16.0625 30.3125 C-15.0725 30.6425 -14.0825 30.9725 -13.0625 31.3125 C-11.72724283 31.39223476 -10.38837917 31.42021338 -9.05078125 31.41015625 C-8.29345703 31.40693359 -7.53613281 31.40371094 -6.75585938 31.40039062 C-5.97017578 31.39201172 -5.18449219 31.38363281 -4.375 31.375 C-3.57771484 31.37048828 -2.78042969 31.36597656 -1.95898438 31.36132812 C0.00654257 31.3495585 1.97203085 31.33162348 3.9375 31.3125 C3.40214629 28.81523763 3.40214629 28.81523763 1.9375 26.3125 C-0.97114407 25.0542122 -0.97114407 25.0542122 -4.375 24.375 C-11.8327096 22.30433063 -11.8327096 22.30433063 -14.375 19.5625 C-16.61660111 15.2453423 -16.67563558 13.14094267 -16.0625 8.3125 C-12.9485489 0.93735266 -7.44735938 -0.17065443 0 0 Z " fill="#ED282F" transform="translate(514.0625,347.6875)"/>
<path d="M0 0 C1.60400582 -0.03554844 3.20823888 -0.0609452 4.8125 -0.08203125 C6.15248047 -0.10487183 6.15248047 -0.10487183 7.51953125 -0.12817383 C10.74006354 0.03824147 12.54733599 0.93056474 15 3 C17.70236114 7.05354172 17.53581918 10.24257514 17 15 C15.44728802 19.06662662 14.63720598 20.57519602 11 23 C9.0625 23.265625 9.0625 23.265625 7 23.25 C5.9790625 23.25773437 5.9790625 23.25773437 4.9375 23.265625 C3 23 3 23 0 21 C-0.34057617 18.84521484 -0.34057617 18.84521484 -0.29296875 16.2109375 C-0.2784668 14.79941406 -0.2784668 14.79941406 -0.26367188 13.359375 C-0.23853516 12.37453125 -0.21339844 11.3896875 -0.1875 10.375 C-0.17396484 9.38242187 -0.16042969 8.38984375 -0.14648438 7.3671875 C-0.11105743 4.91091928 -0.06166196 2.45572715 0 0 Z " fill="#FEF6F6" transform="translate(424,357)"/>
<path d="M0 0 C0.91007813 0.00902344 1.82015625 0.01804687 2.7578125 0.02734375 C3.45648437 0.03894531 4.15515625 0.05054688 4.875 0.0625 C5.02010162 3.33286728 5.10899373 6.60241007 5.1875 9.875 C5.22939453 10.80376953 5.27128906 11.73253906 5.31445312 12.68945312 C5.36044123 15.23719434 5.34847819 17.55785229 4.875 20.0625 C2.13515619 22.53616133 0.48474306 22.96087616 -3.125 23.5625 C-7.17265236 22.88789127 -8.57525362 21.19504555 -11.125 18.0625 C-12.36800105 14.33349684 -12.7961674 10.92900786 -12.125 7.0625 C-9.04724027 1.710873 -6.01695452 -0.07714044 0 0 Z " fill="#FEF5F5" transform="translate(554.125,356.9375)"/>
<path d="M0 0 C6.93 0 13.86 0 21 0 C21 3.3 21 6.6 21 10 C14.07 10 7.14 10 0 10 C0 6.7 0 3.4 0 0 Z " fill="#ED242B" transform="translate(388,362)"/>
<path d="M0 0 C1.5859375 1.609375 1.5859375 1.609375 3.375 3.75 C5.81617866 6.6243732 8.27649992 9.38543992 11 12 C9.75146327 12.79397239 8.50109957 13.58507217 7.25 14.375 C6.55390625 14.81585938 5.8578125 15.25671875 5.140625 15.7109375 C1.34904981 17.99418533 -0.43119598 19 -5 19 C-5.08117951 16.58265458 -5.14056926 14.16805051 -5.1875 11.75 C-5.21263672 11.06808594 -5.23777344 10.38617188 -5.26367188 9.68359375 C-5.31021876 6.48737398 -5.18591611 4.33307787 -3.61328125 1.515625 C-2 0 -2 0 0 0 Z " fill="#586630" transform="translate(425,242)"/>
<path d="M0 0 C3.3 0 6.6 0 10 0 C10 3.63 10 7.26 10 11 C6.7 11 3.4 11 0 11 C0 7.37 0 3.74 0 0 Z " fill="#FDF1F2" transform="translate(440,299)"/>
<path d="M0 0 C0 3.63 0 7.26 0 11 C-7.08076251 11.40850553 -13.19925959 9.90420731 -20 8 C-20 7.67 -20 7.34 -20 7 C-19.21496094 6.82984375 -18.42992187 6.6596875 -17.62109375 6.484375 C-12.71709297 5.35314537 -4.38599492 0 0 0 Z " fill="#5D7539" transform="translate(412,254)"/>
<path d="M0 0 C3.59826806 0.07209645 4.16348191 0.41848568 7.1875 2.8125 C9.1875 5.4375 9.1875 5.4375 9.1875 7.4375 C3.9075 7.4375 -1.3725 7.4375 -6.8125 7.4375 C-5.45008389 0.62541946 -5.45008389 0.62541946 0 0 Z " fill="#FDF2F3" transform="translate(474.8125,356.5625)"/>
<path d="M0 0 C1.98 0 3.96 0 6 0 C6 1.98 6 3.96 6 6 C4.02 6 2.04 6 0 6 C0 4.02 0 2.04 0 0 Z " fill="#FCE0E1" transform="translate(457,301)"/>
<path d="M0 0 C1.98 0 3.96 0 6 0 C6 1.98 6 3.96 6 6 C4.02 6 2.04 6 0 6 C0 4.02 0 2.04 0 0 Z " fill="#FCDFE0" transform="translate(427,301)"/>
<path d="M0 0 C-0.66 0.66 -1.32 1.32 -2 2 C-4.72869407 1.96712417 -7.2966618 1.43602229 -10 1 C-10 0.67 -10 0.34 -10 0 C-6.33694766 -0.74926071 -3.57644848 -1.2380014 0 0 Z " fill="#697848" transform="translate(402,261)"/>
</svg>
